<svg width="163" height="183" viewBox="0 0 163 183" fill="none" xmlns="http://www.w3.org/2000/svg">
<path d="M0 163.528C0 160.613 1.06406 157.501 3.19217 154.189C4.52224 152.864 6.18482 150.745 8.17993 147.831C8.31293 147.301 8.17993 146.374 7.78091 145.049C7.51489 143.592 7.38188 142.797 7.38188 142.664V130.345C7.38188 129.153 8.17993 126.901 9.77601 123.59C11.2391 120.675 12.1701 118.953 12.5692 118.423C14.2982 116.569 16.2268 115.178 18.355 114.251C19.02 113.986 20.1506 113.853 21.7466 113.853C25.0718 113.853 28.7295 114.979 32.7197 117.231C33.1187 117.231 33.9833 116.37 35.3133 114.648C36.7764 112.794 37.641 111.469 37.907 110.674C34.8478 110.674 30.4586 110.144 24.7393 109.085C16.7589 106.568 12.7687 103.389 12.7687 99.5472C12.7687 98.4875 13.1677 97.3616 13.9657 96.1694C16.2268 93.1227 20.4831 89.7448 26.7344 86.0358C27.9315 85.241 31.5891 82.7904 37.7075 78.684C39.4366 77.4919 41.7642 75.24 44.6903 71.9283C45.2224 71.3985 46.0204 70.6037 47.0845 69.544C47.0845 69.4115 47.0845 68.8816 47.0845 67.9544C47.0845 67.1596 46.4194 65.3051 45.0894 62.3909C43.8923 59.3442 43.2938 57.6222 43.2938 57.2248C43.2938 56.43 43.4933 55.9001 43.8923 55.6352C49.3456 57.8871 53.0698 59.013 55.0649 59.013C56.661 59.013 57.592 58.8806 57.858 58.6156C60.9172 55.5689 64.3089 50.734 68.033 44.1107C69.2301 42.2562 70.2942 40.1368 71.2252 37.7524C72.2893 35.3681 73.3533 33.1162 74.4174 30.9967C76.0135 27.6851 77.6095 25.1683 79.2056 23.4463C81.3337 21.3268 83.5949 20.2671 85.989 20.2671C88.7821 20.2671 91.1762 21.9891 93.1714 25.4332C94.9004 28.0825 95.898 30.8643 96.164 33.7785C96.164 33.911 96.297 34.2421 96.563 34.772C96.829 35.3018 96.9621 35.6992 96.9621 35.9642C96.9621 36.3616 96.696 37.0239 96.164 37.9511L95.5655 37.5537C95.1665 35.5668 94.7009 33.4473 94.1689 31.1954C93.7699 28.8111 93.0384 27.0228 91.9743 25.8306C89.8462 23.1813 88.0506 21.8567 86.5875 21.8567C83.9274 21.8567 81.0677 23.9761 78.0086 28.215C75.7474 31.3941 74.1514 34.3084 73.2203 36.9577C71.8902 39.0771 70.2942 42.1238 68.4321 46.0977C68.033 46.3627 67.5675 46.8925 67.0355 47.6873C66.5035 49.5418 65.4394 51.595 63.8433 53.8469C62.5133 55.5689 61.1832 57.3572 59.8531 59.2117C61.9812 59.4767 64.3089 59.6091 66.836 59.6091C68.5651 59.6091 71.8237 55.7014 76.612 47.886C76.878 46.8263 77.676 45.1705 79.0061 42.9186C80.3362 40.5342 81.2672 39.2096 81.7993 38.9446C82.3313 38.6797 82.8633 38.5472 83.3953 38.5472C85.3905 38.5472 87.053 40.6667 88.3831 44.9055C89.8462 49.0119 90.7772 51.0651 91.1763 51.0651C91.4423 51.0651 92.8388 50.2704 95.366 48.6808C95.499 47.0912 95.6985 45.5679 95.9645 44.1107C96.2305 41.9913 96.164 40.2693 95.765 38.9446C95.898 38.9446 96.0975 39.0109 96.3635 39.1433C96.6295 39.2758 96.829 39.342 96.9621 39.342C97.3611 36.6927 97.5606 34.1759 97.5606 31.7915C97.5606 30.8643 97.4941 30.202 97.3611 29.8046C97.4941 29.8046 97.6271 29.6059 97.7601 29.2085C97.8931 28.0163 98.2921 26.0293 98.9572 23.2476C101.218 17.2867 103.745 14.3062 106.539 14.3062C109.997 14.3062 113.388 16.6243 116.714 21.2606C120.039 25.8969 121.834 28.215 122.1 28.215C122.1 28.215 123.829 26.8241 127.288 24.0423C127.288 23.645 127.088 23.0489 126.689 22.2541C126.29 21.3268 126.091 20.7307 126.091 20.4658C125.426 17.0217 125.093 14.0413 125.093 11.5244C125.093 3.84148 127.221 0 131.477 0C134.936 0 139.059 1.92074 143.847 5.76222C144.113 5.62975 144.978 5.03366 146.441 3.97395C147.904 2.91423 149.101 2.38437 150.032 2.38437C150.298 2.38437 150.431 2.31814 150.431 2.18567C150.564 2.0532 150.763 1.98697 151.029 1.98697C153.024 1.98697 154.82 2.84799 156.416 4.57003C158.145 6.15961 159.01 7.88166 159.01 9.73616C159.01 12.7828 158.012 15.7633 156.017 18.6775C154.155 21.4593 153.224 22.8502 153.224 22.8502C153.224 23.1151 153.756 24.7709 154.82 27.8176C155.884 30.8643 156.549 33.05 156.815 34.3746C157.214 36.2291 157.746 39.5407 158.411 44.3095C159.076 49.0782 159.409 52.3236 159.409 54.0456V61.1987C159.409 60.8013 158.611 65.0402 157.015 73.9153C156.616 76.5646 155.219 80.4723 152.825 85.6384C150.431 90.6721 148.436 93.785 146.84 94.9772C146.84 95.1097 146.84 95.3084 146.84 95.5733C146.84 95.4408 148.901 98.0239 153.024 103.322C157.148 108.621 159.475 112.794 160.007 115.84C160.406 116.37 160.938 117.298 161.603 118.622C161.736 118.887 161.936 119.483 162.202 120.41C162.734 121.735 163 123.921 163 126.967C163 128.954 163 130.147 163 130.544C162.734 130.941 162.335 131.537 161.803 132.332C161.803 132.73 161.736 133.326 161.603 134.121C161.337 135.313 160.672 137.035 159.608 139.287C159.209 140.214 158.677 140.942 158.012 141.472C155.618 143.857 152.559 145.711 148.835 147.036C147.372 147.433 145.842 147.632 144.246 147.632C142.517 147.632 140.455 147.433 138.061 147.036C136.598 146.374 134.47 145.579 131.677 144.651C131.145 144.916 130.879 146.771 130.879 150.215C130.746 150.347 130.546 150.612 130.28 151.01C130.413 156.308 129.349 161.739 127.088 167.303C125.758 170.879 124.162 173.727 122.3 175.847C120.571 177.834 118.642 179.556 116.514 181.013C114.519 182.338 111.526 183 107.536 183C107.403 183 106.605 182.801 105.142 182.404C103.812 181.874 102.149 180.814 100.154 179.225C99.4892 178.695 98.4916 177.37 97.1616 175.251C96.6295 174.853 95.9645 174.191 95.1665 173.264C90.7772 164.124 88.5826 155.845 88.5826 148.427C88.5826 148.162 88.4496 147.433 88.1836 146.241C88.0506 145.049 87.9176 144.254 87.7846 143.857C87.6516 143.327 87.4521 143.062 87.186 143.062C85.59 143.062 83.3288 144.983 80.4027 148.824C80.1367 150.149 79.8042 152.069 79.4051 154.586C79.0061 155.381 78.4741 156.573 77.8091 158.163C76.479 163.461 73.8188 167.767 69.8286 171.078C69.0306 172.005 67.8335 173.264 66.2375 174.853C62.5133 178.298 58.1905 180.02 53.2693 180.02C49.5451 180.02 46.1534 178.96 43.0942 176.84C42.5622 175.913 41.5647 174.721 40.1016 173.264C40.1016 173.264 39.5696 173.264 38.5055 173.264C38.2395 173.264 37.4415 173.396 36.1114 173.661C34.9143 173.794 34.1828 173.86 33.9168 173.86C33.1187 173.86 32.1212 173.661 30.9241 173.264C30.2591 173.396 29.2615 173.33 27.9315 173.065C26.3354 172.27 24.0743 171.078 21.1481 169.489C21.0151 169.356 20.6826 169.025 20.1506 168.495C19.6185 167.965 19.2195 167.7 18.9535 167.7C18.8205 167.7 17.6899 168.495 15.5618 170.085C13.5667 171.674 12.2366 172.602 11.5716 172.866C9.5765 173.529 7.91391 173.86 6.58384 173.86C6.05182 173.86 4.92126 173.131 3.19217 171.674C1.59608 170.085 0.731538 169.025 0.598531 168.495C0.19951 166.641 0 164.985 0 163.528ZM1.39657 164.521C1.39657 165.978 1.9286 167.502 2.99266 169.091C4.18972 171.078 5.85231 172.072 7.98042 172.072C11.7046 172.072 15.8278 168.694 20.3501 161.938C23.9412 156.904 26.1359 152.931 26.9339 150.016C27.7319 148.559 28.53 147.102 29.328 145.645C30.9241 142.863 31.7222 141.075 31.7222 140.28C31.7222 138.823 31.3231 136.439 30.5251 133.127C30.3921 132.597 29.9266 131.802 29.1285 130.743C28.7295 130.478 28.264 130.147 27.7319 129.749C25.6038 132.796 21.8131 136.902 16.3599 142.068C10.9066 147.102 7.24888 150.944 5.38678 153.593C5.51979 153.99 5.12077 154.851 4.18972 156.176C3.25867 157.501 2.72664 158.362 2.59364 158.759C1.79559 161.408 1.39657 163.329 1.39657 164.521ZM24.3403 157.964C28.7295 160.481 31.0571 161.739 31.3231 161.739H33.5177C32.9857 159.885 32.3872 157.898 31.7222 155.779V146.241C31.3231 145.844 30.9241 145.645 30.5251 145.645L24.3403 157.964ZM8.57895 137.101L9.77601 145.446C12.4361 143.724 15.6283 140.876 19.3525 136.902C19.4855 136.637 19.8845 135.048 20.5496 132.134C21.0816 130.014 21.9461 128.491 23.1432 127.564C23.1432 127.564 23.7417 127.564 24.9388 127.564C26.1359 127.564 26.8009 127.564 26.9339 127.564C29.461 128.226 31.3231 130.544 32.5202 134.518C33.0522 135.843 33.3182 139.684 33.3182 146.042V156.772C33.3182 156.904 34.0498 158.494 35.5129 161.541C36.0449 161.806 36.3774 161.938 36.5104 161.938C37.1754 161.938 38.439 161.408 40.3011 160.349C42.1632 159.289 43.0942 158.428 43.0942 157.765C43.0942 157.501 43.0277 157.169 42.8947 156.772C42.7617 156.242 42.6287 155.845 42.4957 155.58C42.3627 155.315 42.0967 154.917 41.6977 154.388C39.9686 149.884 39.104 147.301 39.104 146.638V135.114C39.104 132.862 38.838 131.206 38.306 130.147C37.774 128.557 36.9759 126.504 35.9119 123.987C33.3847 119.483 29.727 116.768 24.9388 115.84C23.2097 115.575 22.4117 115.443 22.5447 115.443C20.9486 115.443 19.552 115.642 18.355 116.039C15.4288 117.231 12.8352 120.278 10.5741 125.179C9.90902 126.371 9.44349 128.358 9.17748 131.14C8.77846 134.717 8.57895 136.704 8.57895 137.101ZM20.7491 134.121C20.7491 134.385 20.8156 134.65 20.9486 134.915C21.0816 135.048 21.1481 135.114 21.1481 135.114C22.4782 133.922 24.1408 131.802 26.1359 128.756C26.0029 128.756 25.7368 128.689 25.3378 128.557C24.9388 128.292 24.6063 128.16 24.3403 128.16C24.0743 128.16 23.8082 128.292 23.5422 128.557C23.2762 128.689 22.7442 129.484 21.9461 130.941C21.1481 132.398 20.7491 133.458 20.7491 134.121ZM40.7001 145.446C40.7001 145.711 41.7642 148.957 43.8923 155.182C44.0253 155.447 44.3578 155.58 44.8898 155.58C45.9539 153.328 46.4859 151.473 46.4859 150.016C46.4859 149.089 46.0204 147.632 45.0894 145.645C44.1583 143.526 42.9612 142.466 41.4982 142.466C40.9661 142.466 40.7001 143.459 40.7001 145.446ZM19.7515 165.316C19.7515 166.508 21.4141 167.965 24.7393 169.687C28.1975 171.409 30.7246 172.27 32.3207 172.27C43.4933 172.27 50.8751 167.502 54.4663 157.964C55.3974 155.447 55.8629 153.195 55.8629 151.208C55.8629 149.751 55.7299 148.493 55.4639 147.433C55.1979 146.903 54.8654 145.91 54.4663 144.453C54.0673 142.863 53.7348 141.803 53.4688 141.274C52.6707 140.081 51.2742 138.624 49.2791 136.902C53.8013 133.458 56.3284 131.471 56.8605 130.941C60.0526 127.895 62.1142 124.98 63.0453 122.199C59.8531 120.344 58.124 119.417 57.858 119.417C57.193 119.417 55.0649 121.139 51.4737 124.583C51.0747 125.378 50.2101 126.371 48.88 127.564C48.481 127.696 47.8825 127.961 47.0845 128.358C46.1534 129.153 44.7568 130.08 42.8947 131.14C42.2297 131.273 41.3652 131.537 40.3011 131.935C40.4341 133.657 40.7666 136.439 41.2987 140.28C45.9539 142.797 48.2815 146.109 48.2815 150.215C48.2815 149.42 47.816 150.944 46.8849 154.785C46.3529 157.169 44.8233 159.223 42.2962 160.945C39.7691 162.667 37.4415 163.528 35.3133 163.528C33.0522 163.528 31.1901 163.263 29.7271 162.733C29.062 162.6 27.9315 162.137 26.3354 161.342C24.8723 160.415 24.0078 159.951 23.7417 159.951C23.4757 159.951 23.2097 160.017 22.9437 160.15C20.8156 164.256 19.7515 165.978 19.7515 165.316ZM41.8972 172.866C42.1632 173.131 42.5622 173.661 43.0942 174.456C43.7593 175.118 44.2248 175.582 44.4908 175.847C45.4219 176.774 46.6189 177.37 48.082 177.635C50.4761 178.165 52.0722 178.43 52.8703 178.43C51.9392 178.43 54.0673 177.834 59.2546 176.642C61.9147 176.112 64.7744 174.522 67.8335 171.873C71.6907 168.561 74.4174 164.322 76.0135 159.156C77.7426 152.931 78.6071 150.149 78.6071 150.811C78.6071 150.679 78.3411 150.347 77.8091 149.818C75.814 150.347 73.3533 151.076 70.4272 152.003C69.7621 152.401 69.2301 152.931 68.8311 153.593C68.5651 154.255 68.2991 154.851 68.033 155.381C65.9049 158.295 64.3754 160.216 63.4443 161.143C61.7152 162.865 59.7866 164.058 57.6585 164.72C57.3925 164.852 57.1265 165.117 56.8605 165.515C56.5945 165.78 56.3284 165.912 56.0624 165.912C54.9984 165.912 53.8678 165.515 52.6707 164.72C50.9417 166.707 48.9466 168.363 46.6854 169.687C43.8923 171.409 42.2962 172.469 41.8972 172.866ZM52.2717 136.902C54.7989 139.817 56.3949 143.989 57.06 149.42C57.326 149.95 57.459 150.149 57.459 150.016C57.459 150.414 57.326 150.679 57.06 150.811C56.927 150.944 56.8605 151.076 56.8605 151.208C56.8605 154.123 56.794 155.845 56.661 156.375C56.1289 158.494 54.8654 160.746 52.8703 163.13C53.8013 163.528 54.5993 163.726 55.2644 163.726C59.6536 163.726 63.9763 159.951 68.2326 152.401C64.9074 150.679 62.8458 149.288 62.0477 148.228C60.5847 146.638 59.8531 144.188 59.8531 140.876C59.8531 133.591 63.9098 128.292 72.0233 124.98C72.4223 124.716 72.6218 124.384 72.6218 123.987C69.6956 123.59 67.0355 123.258 64.6414 122.993C63.9763 124.053 63.1118 125.51 62.0477 127.365C61.1167 128.16 60.0526 129.286 58.8556 130.743C57.1265 132.2 54.9319 134.253 52.2717 136.902ZM39.7026 128.557C39.7026 129.484 40.1016 129.948 40.8996 129.948C40.7666 129.948 41.6312 129.749 43.4933 129.352C44.5573 129.087 46.8184 127.431 50.2766 124.384C53.8678 121.205 55.6634 119.152 55.6634 118.225C55.6634 118.622 54.7324 117.364 52.8703 114.45C52.6042 113.655 52.0722 112.529 51.2742 111.072H47.683C47.151 112.926 45.8874 115.907 43.8923 120.013C43.7593 120.543 43.5598 121.271 43.2938 122.199C40.8996 126.703 39.7026 128.822 39.7026 128.557ZM34.5153 119.02C34.5153 118.755 35.9784 121.205 38.9045 126.371C41.6977 122.53 43.4268 119.152 44.0918 116.238C44.2248 115.84 44.8898 113.787 46.0869 110.078C47.151 107.164 47.683 104.846 47.683 103.124C47.683 103.654 47.3505 101.932 46.6854 97.9577C45.4884 99.8122 43.8923 102.528 41.8972 106.104C41.7642 106.767 41.4317 107.628 40.8996 108.687C36.6434 115.575 34.5153 119.02 34.5153 119.02ZM47.284 108.886L50.0771 109.283C49.6781 107.561 49.4786 106.767 49.4786 106.899H48.2815C48.2815 107.031 47.949 107.694 47.284 108.886ZM14.5643 99.1498C14.5643 101.667 16.8919 103.985 21.5471 106.104C25.6703 107.959 30.8576 108.886 37.1089 108.886C38.04 108.886 38.971 108.29 39.9021 107.098C40.8331 105.906 41.2987 104.912 41.2987 104.117C41.2987 103.72 41.1656 103.389 40.8996 103.124C38.6385 103.654 36.0449 103.256 33.1187 101.932C30.1926 100.474 28.7295 98.9511 28.7295 97.3616C28.7295 96.1694 30.5251 94.1824 34.1163 91.4007C35.8454 90.2085 38.306 88.2877 41.4982 85.6384C43.2273 84.5787 45.2224 82.8567 47.4835 80.4723C47.7495 79.81 47.8825 78.0217 47.8825 75.1075C47.8825 74.8426 47.816 74.3127 47.683 73.5179C47.683 72.7231 47.683 72.1933 47.683 71.9283C45.5549 73.7828 42.6952 76.2334 39.104 79.2801C38.439 79.81 31.6556 84.4463 18.754 93.1889C18.222 93.5863 17.3574 94.5798 16.1603 96.1694C15.0963 97.6265 14.5643 98.62 14.5643 99.1498ZM30.3256 96.7655C30.3256 98.2226 31.3896 99.4148 33.5177 100.342C35.7789 101.269 37.8405 101.733 39.7026 101.733C41.1656 101.733 42.1632 101.534 42.6952 101.137C43.8923 99.4148 45.2889 96.8317 46.8849 93.3876C47.151 92.4604 47.284 90.4734 47.284 87.4267C47.284 85.8371 47.2175 84.7112 47.0845 84.0489H45.6879C42.7617 86.1683 39.9021 88.354 37.1089 90.6059C32.5867 94.0499 30.3256 96.1031 30.3256 96.7655ZM75.6144 138.492C76.5455 138.889 77.144 139.088 77.41 139.088C77.6761 139.088 78.3411 138.889 79.4051 138.492C80.6022 138.094 81.3337 137.763 81.5998 137.498C81.8658 137.233 82.0653 136.836 82.1983 136.306C82.3313 135.776 82.4643 134.65 82.5973 132.928C82.7303 131.206 82.7968 130.279 82.7968 130.147C82.7968 128.16 82.4643 125.312 81.7993 121.603C81.5333 121.073 81.2007 120.808 80.8017 120.808C79.7377 121.47 78.2081 122.464 76.213 123.788C77.144 126.835 77.6096 129.087 77.6096 130.544C77.6096 131.471 76.9445 134.121 75.6144 138.492ZM60.8507 141.671C60.8507 142.598 61.3162 144.055 62.2472 146.042C63.3113 147.897 64.3754 149.023 65.4394 149.42C67.4345 150.083 69.0306 150.414 70.2277 150.414C74.0849 150.414 78.6736 148.36 83.9939 144.254C85.3239 142.664 87.3191 140.545 89.9792 137.896C90.1122 138.028 90.1787 138.293 90.1787 138.691C88.9816 143.062 89.2477 149.553 90.9767 158.163C91.1097 158.56 91.3093 159.09 91.5753 159.752C91.9743 161.474 92.5728 163.793 93.3709 166.707C97.6271 176.509 103.014 181.41 109.531 181.41C114.984 181.41 119.307 178.496 122.499 172.668C122.765 172.27 123.031 171.807 123.297 171.277C123.563 170.615 123.896 169.886 124.295 169.091C124.694 168.164 125.226 167.104 125.891 165.912C128.551 157.434 129.682 149.818 129.283 143.062C126.889 141.075 123.563 138.757 119.307 136.107C119.174 139.022 118.908 143.327 118.509 149.023C118.509 149.288 118.376 149.685 118.11 150.215C117.977 150.612 117.911 150.944 117.911 151.208C117.911 152.666 117.844 153.659 117.711 154.189C117.046 155.779 116.049 158.229 114.718 161.541C113.388 165.25 111.46 167.104 108.933 167.104C105.075 167.104 101.617 164.322 98.5581 158.759C97.4941 156.772 96.696 154.321 96.164 151.407C95.1 145.446 94.5679 141.87 94.5679 140.678C94.5679 140.545 94.5679 139.883 94.5679 138.691C94.7009 137.101 94.7674 135.048 94.7674 132.531C94.7674 131.604 94.8339 130.345 94.9669 128.756C95.233 128.226 95.366 127.895 95.366 127.762V119.02C95.366 118.755 95.4325 118.357 95.5655 117.827C95.8315 117.298 95.9645 116.9 95.9645 116.635V105.707H94.9669C94.0359 106.104 93.3709 106.502 92.9718 106.899C93.6369 112.198 93.1714 118.291 91.5753 125.179C91.1763 126.371 90.5777 128.027 89.7797 130.147C89.5137 130.412 89.1811 130.809 88.7821 131.339C88.1171 133.856 86.654 135.975 84.3929 137.697C82.1318 139.419 79.6712 140.28 77.011 140.28C75.0159 140.28 73.6193 139.949 72.8213 139.287C72.4223 137.962 72.2228 137.498 72.2228 137.896C72.2228 137.631 72.8878 136.77 74.2179 135.313C75.5479 133.723 76.213 131.471 76.213 128.557C76.08 126.438 75.4814 125.378 74.4174 125.378C72.4223 125.378 69.9616 126.703 67.0355 129.352C64.1093 131.869 62.3138 135.379 61.6487 139.883C61.6487 140.015 61.5157 140.28 61.2497 140.678C60.9837 141.075 60.8507 141.406 60.8507 141.671ZM83.3953 134.518C83.3953 134.783 83.4619 135.048 83.5949 135.313C83.7279 135.578 83.7944 135.71 83.7944 135.71C84.3264 135.578 85.1909 134.849 86.388 133.524C87.7181 132.2 88.3831 131.206 88.3831 130.544C88.3831 130.014 88.2501 129.749 87.9841 129.749C86.787 129.749 85.3904 130.08 83.7944 130.743C83.5284 133.789 83.3953 135.048 83.3953 134.518ZM83.7944 123.391V128.16C84.3264 128.16 84.7919 128.226 85.1909 128.358C85.723 128.491 86.122 128.557 86.388 128.557C86.255 128.557 86.9865 128.358 88.5826 127.961C88.8486 127.961 89.2476 127.365 89.7797 126.173C90.3117 124.98 90.5112 124.186 90.3782 123.788V122.199H86.9865C87.3856 122.199 86.3215 122.596 83.7944 123.391ZM96.3635 126.769V140.876C96.3635 142.068 96.563 144.122 96.9621 147.036C97.4941 149.818 98.3586 153.129 99.5557 156.971C99.8217 157.898 100.886 159.421 102.748 161.541C105.009 164.322 107.071 165.713 108.933 165.713C111.859 165.713 114.386 161.276 116.514 152.401C116.647 146.705 116.78 144.453 116.913 145.645C117.312 145.115 117.512 144.718 117.512 144.453C117.512 141.141 117.512 138.691 117.512 137.101C117.645 135.511 117.711 134.849 117.711 135.114C117.711 133.922 116.98 132.465 115.517 130.743C113.388 128.226 112.191 126.769 111.925 126.371C110.462 123.722 109.066 121.669 107.736 120.212C104.942 121.801 101.152 123.987 96.3635 126.769ZM83.1958 120.013C83.1958 120.278 83.2623 120.609 83.3953 121.007C83.5284 121.271 83.5949 121.404 83.5949 121.404H85.3904C87.5186 121.536 89.5137 120.808 91.3758 119.218C91.5088 117.496 91.7083 115.112 91.9743 112.065C91.8413 113.257 91.7083 111.866 91.5753 107.893C91.4423 105.906 91.8413 104.846 92.7723 104.713C93.7034 104.448 95.0335 104.117 96.7625 103.72C97.4276 104.78 97.5606 107.826 97.1616 112.86C97.5606 113.39 97.6936 114.251 97.5606 115.443H98.9572C100.42 114.516 101.883 113.059 103.346 111.072L97.9596 100.739L90.5777 103.521C90.4447 104.581 90.1787 106.104 89.7797 108.091C88.9816 109.548 87.9176 111.734 86.5875 114.648C86.3215 115.178 85.6565 116.172 84.5924 117.629C83.6614 118.953 83.1958 119.748 83.1958 120.013ZM45.8874 58.4169V59.6091C46.4194 60.6688 47.284 62.987 48.481 66.5635C49.4121 69.4777 49.8776 72.7231 49.8776 76.2997C49.8776 75.7698 49.6781 77.8893 49.2791 82.658C48.88 87.2942 48.6805 91.6656 48.6805 95.772C48.6805 99.2161 49.3456 102.793 50.6756 106.502C52.4047 111.27 55.1314 115.178 58.8556 118.225C62.7128 121.139 66.836 122.596 71.2252 122.596C73.4863 122.596 75.4149 122.199 77.011 121.404C77.676 120.742 78.7401 119.947 80.2032 119.02C81.6663 118.092 82.6638 117.364 83.1958 116.834C84.2599 115.907 85.457 114.383 86.787 112.264C87.4521 111.204 88.0506 109.085 88.5826 105.906C88.5826 104.978 88.6491 103.852 88.7821 102.528C89.0481 101.733 89.6467 101.269 90.5777 101.137C95.499 100.739 99.6887 98.7524 103.147 95.1759C106.738 91.4669 108.534 87.0293 108.534 81.8632C108.534 78.8165 107.869 75.9023 106.539 73.1205C105.874 71.6634 104.41 69.7427 102.149 67.3583C101.484 66.8285 99.6222 65.7687 96.563 64.1792C95.898 63.6493 95.0335 63.0532 93.9694 62.3909C88.9151 61.3312 84.6589 60.8013 81.2007 60.8013C80.9347 60.8013 78.6071 60.8675 74.2179 61C69.9616 61.1325 67.767 61.1987 67.634 61.1987C58.8556 61.1987 51.6067 60.2714 45.8874 58.4169ZM99.3562 100.541C99.3562 101.071 101.085 103.985 104.543 109.283H105.741C106.539 108.356 106.938 107.561 106.938 106.899C106.938 106.634 106.206 105.442 104.743 103.322C104.344 102.66 103.945 101.932 103.546 101.137C103.28 100.21 102.615 99.2823 101.551 98.355C100.088 99.2823 99.3562 100.011 99.3562 100.541ZM96.563 123.59C96.829 123.722 97.4276 123.855 98.3586 123.987C103.812 121.603 109.132 117.496 114.319 111.668C115.916 109.681 117.911 106.7 120.305 102.726C123.497 97.6927 125.093 94.05 125.093 91.7981C125.093 91.5331 124.361 90.6721 122.898 89.215C121.568 87.6254 120.704 86.6319 120.305 86.2345H119.307C117.046 91.4007 114.718 96.5668 112.324 101.733C108.6 109.018 104.211 114.118 99.1567 117.033C98.6246 117.298 98.0261 117.695 97.3611 118.225C97.2281 119.549 96.9621 121.338 96.563 123.59ZM121.302 121.205C121.302 121.735 121.502 122.199 121.901 122.596C123.763 125.378 125.958 127.034 128.485 127.564C129.017 127.961 129.283 128.16 129.283 128.16H130.28C130.546 123.126 131.61 118.026 133.472 112.86C133.738 111.933 134.47 110.476 135.667 108.489C136.997 106.369 137.662 105.243 137.662 105.111C137.662 104.713 136.266 103.19 133.472 100.541C132.009 101.468 131.012 102.395 130.48 103.322C129.283 104.912 127.554 107.959 125.293 112.463C122.632 116.834 121.302 119.748 121.302 121.205ZM114.718 113.456C114.718 113.721 116.049 115.708 118.709 119.417C119.507 119.814 119.972 120.013 120.105 120.013C120.77 117.894 122.499 114.317 125.293 109.283C125.825 108.091 126.689 106.435 127.886 104.316C130.679 100.474 132.076 98.6862 132.076 98.9511C132.076 98.8187 131.411 98.0901 130.081 96.7655C128.751 95.3084 127.886 94.3149 127.487 93.785H126.29C124.96 97.6265 121.103 104.184 114.718 113.456ZM131.477 128.954C132.807 129.882 134.736 130.345 137.263 130.345C139.391 130.345 141.32 129.021 143.049 126.371C144.512 124.119 145.244 121.801 145.244 119.417C145.244 118.49 145.111 117.165 144.845 115.443C144.446 112.529 142.517 109.548 139.059 106.502C138.128 107.031 137.463 107.76 137.064 108.687C136.133 111.072 134.736 114.781 132.874 119.814C132.741 121.536 132.475 123.987 132.076 127.166C131.677 129.021 131.477 129.617 131.477 128.954ZM103.745 97.9577C103.745 99.4148 105.208 101.799 108.135 105.111C108.8 104.316 109.598 103.256 110.529 101.932C111.061 101.137 112.324 98.5537 114.319 94.1824C116.581 89.1488 117.711 86.0358 117.711 84.8437C117.711 84.3138 114.585 80.4061 108.334 73.1205C109.265 75.7698 109.731 78.6178 109.731 81.6645C109.731 88.0228 107.869 92.9902 104.144 96.5668C103.878 97.3616 103.745 97.8252 103.745 97.9577ZM71.0257 59.013C72.3558 59.4104 73.9519 59.2117 75.814 58.4169C77.6761 57.4897 79.4716 56.6287 81.2007 55.8339C86.388 53.7144 88.9816 52.2573 88.9816 51.4625C87.2525 43.9121 85.3905 40.1368 83.3953 40.1368C82.7303 40.1368 82.0653 40.6667 81.4002 41.7264C79.9372 44.3757 77.8091 48.0185 75.0159 52.6547C73.5528 54.9066 72.2228 57.0261 71.0257 59.013ZM102.349 55.4365C102.748 56.4962 103.213 57.8871 103.745 59.6091C104.41 61.3312 105.541 63.848 107.137 67.1596C108.068 68.6167 109.465 70.6699 111.327 73.3192C111.992 74.7763 113.122 76.6971 114.718 79.0814C118.709 83.0554 124.162 88.6189 131.078 95.772C133.738 98.2888 137.662 102.263 142.849 107.694C143.78 109.018 144.845 111.469 146.042 115.046C146.707 117.298 147.039 118.556 147.039 118.821C147.039 119.881 146.906 121.007 146.64 122.199C144.778 128.557 140.522 131.736 133.871 131.736C134.404 131.736 133.14 131.206 130.081 130.147C128.618 129.484 126.822 128.623 124.694 127.564C122.167 125.312 119.44 122.53 116.514 119.218C114.12 116.436 112.923 115.046 112.923 115.046C112.524 115.046 111.859 115.509 110.928 116.436C109.997 117.364 109.398 117.96 109.132 118.225C108.999 119.284 109.265 120.278 109.93 121.205C111.792 123.59 113.588 126.04 115.317 128.557C118.11 132.001 120.637 134.518 122.898 136.107C123.031 136.24 123.297 136.571 123.696 137.101C126.49 139.353 130.679 141.936 136.266 144.85C138.527 145.512 141.32 145.844 144.645 145.844C147.039 145.844 149.167 145.38 151.029 144.453C153.557 143.128 155.751 141.141 157.613 138.492C159.608 135.71 160.739 133.259 161.005 131.14C160.872 130.743 160.872 130.147 161.005 129.352C161.271 128.425 161.404 127.497 161.404 126.57C161.404 124.98 161.005 122.331 160.207 118.622C160.074 118.357 159.808 117.894 159.409 117.231C159.143 116.569 159.076 116.105 159.209 115.84C155.219 109.217 150.963 103.322 146.441 98.1564C143.647 95.772 139.857 92.3941 135.069 88.0228C130.812 84.3138 125.359 79.0152 118.709 72.127C116.581 69.6102 114.718 66.2986 113.122 62.1922C111.925 58.8806 110.795 55.569 109.731 52.2573H108.733C107.27 52.9197 105.142 53.9794 102.349 55.4365ZM89.5802 59.8078C91.3093 60.7351 92.5728 61.1987 93.3709 61.1987H94.7674C95.1665 60.2714 95.366 59.4767 95.366 58.8143C95.366 58.4169 95.1 57.9533 94.5679 57.4235C91.9078 58.0858 90.2452 58.8806 89.5802 59.8078ZM96.3635 57.2248C96.2305 58.4169 96.3635 59.9403 96.7625 61.7948C96.8955 61.7948 98.8907 63.2519 102.748 66.1661C103.679 66.9609 104.876 68.0206 106.339 69.3453V68.3518C106.339 68.0869 106.007 67.4245 105.341 66.3648C104.676 65.3051 104.277 64.6428 104.144 64.3778C104.011 64.1129 103.147 62.2584 101.551 58.8143C100.62 56.6949 100.021 55.6352 99.7552 55.6352C98.2921 55.6352 97.1616 56.165 96.3635 57.2248ZM96.9621 48.0847C97.4941 47.8198 98.0926 47.5548 98.7576 47.2899C98.0926 45.1705 97.6271 43.1173 97.3611 41.1303C97.0951 45.899 96.9621 48.2172 96.9621 48.0847ZM111.526 51.0651C111.526 52.5223 112.258 55.3703 113.721 59.6091C115.982 66.3648 118.31 70.405 120.704 71.7296C121.103 69.4777 121.302 67.8882 121.302 66.9609C121.302 66.2986 121.236 64.6428 121.103 61.9935C120.97 60.8013 120.371 58.6156 119.307 55.4365C117.977 51.595 116.78 49.6743 115.716 49.6743C114.918 49.6743 113.521 50.1379 111.526 51.0651ZM117.711 48.6808C118.775 50.9327 120.105 54.2443 121.701 58.6156C122.499 62.3246 122.765 66.0337 122.499 69.7427C122.366 72.6569 122.233 73.9153 122.1 73.5179C122.366 74.4452 123.164 75.5711 124.494 76.8958C125.958 78.2204 127.155 78.949 128.086 79.0814C128.884 76.0348 129.283 73.8491 129.283 72.5244C129.283 72.2595 129.216 71.3322 129.083 69.7427C128.95 68.1531 128.884 67.0934 128.884 66.5635C128.751 64.0467 128.485 60.4701 128.086 55.8339C127.554 53.9794 126.955 51.3963 126.29 48.0847C126.024 47.9522 125.758 47.6873 125.492 47.2899C125.226 45.8328 124.694 45.1042 123.896 45.1042C123.497 45.1042 121.435 46.2964 117.711 48.6808ZM78.2081 59.2117C78.7401 59.2117 79.4716 59.278 80.4027 59.4104C81.3337 59.5429 81.8658 59.6091 81.9988 59.6091C83.8609 59.6091 85.2574 59.4767 86.1885 59.2117C103.745 53.5157 119.374 46.5614 133.073 38.3485C132.142 34.772 131.677 32.8512 131.677 32.5863C130.746 30.3344 129.283 28.1488 127.288 26.0293C118.243 34.1097 110.861 40.3355 105.142 44.7068C101.817 47.2237 95.9645 50.6678 87.5851 55.0391C85.723 55.7014 83.2623 56.5624 80.2032 57.6221C79.2721 57.8871 78.6071 58.4169 78.2081 59.2117ZM106.339 36.5603C106.339 36.8252 106.406 37.4213 106.539 38.3485C106.672 39.1433 106.805 39.7394 106.938 40.1368C107.204 40.5342 107.603 40.7329 108.135 40.7329C108.135 40.7329 108.534 40.6004 109.332 40.3355C109.864 39.4083 110.928 38.4148 112.524 37.3551C112.125 36.1629 111.792 34.9707 111.526 33.7785C110.861 32.5863 109.93 31.9902 108.733 31.9902C107.137 31.9902 106.339 33.5136 106.339 36.5603ZM98.3586 30.202C98.3586 29.937 98.5581 30.4669 98.9572 31.7915C98.5581 35.8979 98.6246 39.342 99.1567 42.1238C99.4227 42.9186 99.8217 44.0445 100.354 45.5016C102.482 45.2367 104.344 44.0445 105.94 41.9251C105.94 42.8523 105.741 41.9251 105.341 39.1433C104.942 36.2291 105.142 33.9772 105.94 32.3876C106.738 30.798 107.536 30.0033 108.334 30.0033C110.063 30.0033 111.925 31.9902 113.92 35.9642C118.443 32.5201 120.704 30.5331 120.704 30.0033C120.704 28.8111 118.975 26.0293 115.517 21.658C113.521 19.1412 111.659 17.6178 109.93 17.088C109.664 17.088 109.199 16.8893 108.534 16.4919C108.002 15.962 107.603 15.6971 107.337 15.6971C105.075 15.6971 103.08 17.4853 101.351 21.0619C100.021 23.9761 99.3562 26.6916 99.3562 29.2085C98.6911 30.0033 98.3586 30.3344 98.3586 30.202ZM129.283 79.8762C129.283 81.2009 131.544 83.5852 136.066 87.0293C138.194 88.6189 139.192 89.4137 139.059 89.4137C140.389 89.4137 142.583 85.6384 145.643 78.0879C146.308 77.0282 147.039 75.6374 147.837 73.9153C150.364 64.6428 151.628 57.8209 151.628 53.4495C151.628 47.886 150.83 41.9913 149.234 35.7655C148.702 34.0434 147.837 31.7253 146.64 28.8111C144.512 30.2682 143.448 31.1292 143.448 31.3941C143.448 30.9967 144.113 32.785 145.443 36.759C146.773 40.203 147.704 43.4484 148.236 46.4951C148.502 47.6873 148.635 49.0782 148.635 50.6678C148.635 53.3171 148.103 56.165 147.039 59.2117C146.906 59.6091 146.574 60.0728 146.042 60.6026C144.446 62.987 142.849 64.5766 141.253 65.3713C139.657 66.1661 138.593 66.5635 138.061 66.5635C137.263 66.5635 134.67 65.9674 130.28 64.7752V72.9218C130.28 73.9815 130.28 75.3724 130.28 77.0945C130.147 77.3594 129.948 77.823 129.682 78.4853C129.416 79.1477 129.283 79.6113 129.283 79.8762ZM128.684 42.5212C130.014 43.1835 130.613 43.5147 130.48 43.5147H132.076C132.076 43.3822 132.142 43.1835 132.275 42.9186C132.541 42.6536 132.674 42.3887 132.674 42.1238V40.5342H131.677C130.879 40.9316 129.881 41.5939 128.684 42.5212ZM140.655 91.0033C140.655 91.4007 141.187 92.1292 142.251 93.1889C143.448 94.1162 144.313 94.5798 144.845 94.5798C145.377 94.5798 146.574 93.0565 148.436 90.0098C150.83 87.6254 153.49 81.0022 156.416 70.1401C156.416 69.4777 156.483 68.683 156.616 67.7557C157.414 65.5038 157.813 64.2454 157.813 63.9805V53.4495C157.813 47.886 157.148 42.19 155.818 36.3616C154.887 32.1227 153.556 28.0825 151.827 24.241H150.83C150.165 25.5657 149.234 26.4929 148.037 27.0228C147.904 27.9501 148.236 29.2747 149.034 30.9967C149.832 32.7188 150.298 33.7785 150.431 34.1759C152.293 45.8328 153.224 52.2573 153.224 53.4495C153.224 63.6493 150.83 73.1205 146.042 81.8632C145.776 82.3931 145.377 82.9229 144.845 83.4528C142.051 88.6189 140.655 91.1357 140.655 91.0033ZM125.692 43.9121V45.899C125.692 46.164 126.024 46.8925 126.689 48.0847C127.487 49.2769 127.953 50.1379 128.086 50.6678C128.352 53.3171 129.017 57.291 130.081 62.5896C132.475 64.0467 135.002 64.7752 137.662 64.7752C139.125 64.7752 140.721 64.1129 142.45 62.7883C143.78 61.7286 144.978 59.9403 146.042 57.4235C147.106 54.9066 147.638 52.5223 147.638 50.2704C147.638 48.4159 146.308 43.1173 143.647 34.3746C143.514 33.9772 141.852 30.5331 138.66 24.0423C135.734 18.0814 134.27 14.6374 134.27 13.7101C134.27 11.5907 134.803 10.531 135.867 10.531C137.064 10.3985 138.46 10.266 140.056 10.1335C141.652 9.33876 142.45 8.27905 142.45 6.9544C142.45 6.68947 141.918 6.15961 140.854 5.36482C137.396 2.71553 134.404 1.39089 131.876 1.39089C130.28 1.39089 128.884 2.38437 127.687 4.37134C126.623 6.35831 126.224 8.08035 126.49 9.53747C126.091 9.93486 125.891 10.266 125.891 10.531C125.891 11.8556 126.29 14.1737 127.088 17.4853C127.62 19.7372 128.751 22.9164 130.48 27.0228C131.278 28.0825 132.209 29.8708 133.273 32.3876C133.406 33.4473 133.738 34.5071 134.27 35.5668C134.404 36.0966 134.47 37.2888 134.47 39.1433C134.47 43.1173 133.339 45.1042 131.078 45.1042C130.945 45.1042 130.28 44.8393 129.083 44.3095C127.886 43.7796 127.155 43.5147 126.889 43.5147C126.357 43.5147 125.958 43.6471 125.692 43.9121ZM135.468 13.5114C135.468 14.1737 135.867 14.5049 136.665 14.5049C137.862 13.7101 138.46 12.9815 138.46 12.3192C138.46 11.7894 138.327 11.5244 138.061 11.5244H136.864C135.933 12.5842 135.468 13.2465 135.468 13.5114ZM136.665 17.684C140.256 25.367 142.517 29.2085 143.448 29.2085C143.847 29.2085 145.377 27.9501 148.037 25.4332C150.83 22.9164 152.426 21.3931 152.825 20.8632C154.554 18.4788 155.818 16.3594 156.616 14.5049C157.148 13.3127 157.414 11.9881 157.414 10.531C157.414 5.89468 155.286 3.57655 151.029 3.57655C149.3 3.57655 147.505 4.30511 145.643 5.76222C144.845 6.55701 143.78 8.01412 142.45 10.1335C138.593 14.3724 136.665 16.8893 136.665 17.684Z" fill="#E6E6E6"/>
</svg>
