<svg width="180" height="19" viewBox="0 0 180 19" fill="none" xmlns="http://www.w3.org/2000/svg">
<path d="M142.5 15.9563C142.5 16.2023 142.285 16.5405 141.854 16.9709C141.424 17.4013 141.086 17.6165 140.84 17.6165C140.655 17.6165 140.471 17.5243 140.286 17.3398V16.7864C140.594 16.2945 140.778 15.9256 140.84 15.6796C140.84 15.1262 141.024 14.8495 141.393 14.8495C142.131 14.8495 142.5 15.2184 142.5 15.9563ZM138.626 15.6796C138.626 16.5405 137.796 17.1861 136.136 17.6165V16.5097H136.689C136.689 14.6036 136.874 13.6505 137.243 13.6505C138.165 13.6505 138.626 14.3269 138.626 15.6796ZM179.301 8.1165C179.301 14.2654 174.505 17.3398 164.913 17.3398C159.01 17.3398 153.445 16.7249 148.218 15.4951C141.639 13.9579 136.597 11.6828 133.092 8.6699H132.262L131.432 9.2233L131.709 10.0534L130.602 11.7136L131.432 13.0971L130.049 14.5728L128.665 12.8204H128.112L127.005 13.6505L125.068 11.9903C126.913 11.9903 127.835 10.7913 127.835 8.3932C127.835 6.54854 125.16 5.07282 119.811 3.96602C115.937 3.16667 112.432 2.76699 109.296 2.76699C107.882 2.76699 105.853 3.2589 103.209 4.24272C100.565 5.16505 98.5356 5.62621 97.1214 5.62621H95.7379V5.07281C100.964 2.24434 105.945 0.830096 110.68 0.830096C112.032 0.830096 114 1.07605 116.583 1.56796C119.227 1.99838 121.225 2.21359 122.578 2.21359L125.898 0.276698H126.451C126.574 1.32201 126.113 2.24434 125.068 3.04369C126.236 3.84304 129.034 4.55016 133.461 5.16505C137.028 5.65696 140.04 5.90291 142.5 5.90291C144.96 5.90291 146.927 5.56472 148.403 4.88835C149.879 4.21197 151.508 2.95146 153.291 1.1068C154.951 1.84466 155.782 2.95146 155.782 4.42718C155.782 6.88673 154.859 8.1165 153.015 8.1165L150.524 7.28641C150.217 9.13107 149.663 10.0534 148.864 10.0534L148.034 9.7767L147.481 8.3932L144.99 10.3301L143.607 9.7767L143.053 8.6699H142.223L140.563 10.0534L138.626 8.3932C136.597 8.20874 135.029 7.93204 133.922 7.56311L133.369 8.1165C141.977 12.4207 148.987 14.5728 154.398 14.5728C154.767 14.3269 155.689 13.6505 157.165 12.5437C158.272 11.6828 159.286 11.1294 160.209 10.8835L160.485 11.1602L157.442 14.8495C160.209 15.2184 162.422 15.4029 164.083 15.4029C166.296 15.4029 168.571 15.1262 170.908 14.5728C174.29 13.7735 175.981 12.6359 175.981 11.1602L175.704 10.8835C174.843 11.6214 173.736 11.9903 172.383 11.9903C170.354 11.9903 169.34 10.7913 169.34 8.3932C169.34 5.19579 170.908 3.59709 174.044 3.59709C175.396 3.59709 176.595 4.02751 177.641 4.88835C178.748 5.6877 179.301 6.76375 179.301 8.1165ZM134.199 14.8495C134.199 15.7718 133.83 16.5712 133.092 17.2476C132.354 17.8625 131.524 18.1699 130.602 18.1699C128.265 18.1699 125.775 17.1246 123.131 15.034C122.024 14.1731 119.995 12.2362 117.044 9.2233L116.49 9.7767C117.044 10.3916 117.32 11.4061 117.32 12.8204C117.32 14.0502 117.044 15.2492 116.49 16.4175C115.752 17.7702 114.83 18.4466 113.723 18.4466C112.432 18.4466 111.786 17.8932 111.786 16.7864C111.786 16.356 112.617 15.8948 114.277 15.4029L113.723 14.8495C112.248 14.8495 111.51 14.2654 111.51 13.0971L111.694 11.5291C111.756 10.9142 111.694 10.4223 111.51 10.0534C111.325 10.0534 110.987 10.2379 110.495 10.6068C110.003 10.9757 109.604 11.1602 109.296 11.1602C108.927 11.1602 108.435 10.699 107.82 9.7767C107.206 8.85437 106.775 8.3932 106.529 8.3932H105.699C106.068 9.00809 106.252 9.56149 106.252 10.0534V10.8835L104.592 10.0534C104.223 8.9466 103.301 8.3932 101.825 8.3932H99.8884V8.9466C100.934 9.19256 101.917 9.83819 102.84 10.8835C103.824 11.9288 104.316 12.9741 104.316 14.0194C104.316 15.3107 103.485 15.9563 101.825 15.9563C100.534 15.9563 99.8884 15.3107 99.8884 14.0194C99.8884 13.0971 100.534 12.4207 101.825 11.9903C100.411 10.3301 98.843 9.5 97.1214 9.5C96.0146 9.5 95.2767 9.7767 94.9078 10.3301C95.8301 10.699 96.568 11.1602 97.1214 11.7136V11.9903C93.801 11.9288 92.0485 11.9288 91.8641 11.9903V11.1602C95.8608 7.10194 99.8269 5.07281 103.762 5.07281C104.131 5.07281 104.684 5.22654 105.422 5.53398C106.16 5.77993 106.714 5.90291 107.083 5.90291C107.267 5.90291 107.574 5.65696 108.005 5.16505C108.497 4.67314 108.927 4.42718 109.296 4.42718C109.788 4.42718 110.28 4.67314 110.772 5.16505C111.325 5.65696 111.663 5.90291 111.786 5.90291C112.34 5.34951 112.985 5.07281 113.723 5.07281C114.523 5.07281 115.599 5.62621 116.951 6.73301C118.304 7.83981 119.257 8.3932 119.811 8.3932L120.917 8.1165C121.04 7.00971 121.317 6.45631 121.748 6.45631C122.854 6.45631 123.408 6.82524 123.408 7.56311C123.408 8.85437 122.67 9.5 121.194 9.5C120.272 9.5 119.626 9.40777 119.257 9.2233L118.704 9.7767C121.778 12.3592 123.316 13.6505 123.316 13.6505C125.222 15.1877 127.005 15.9563 128.665 15.9563C131.063 15.9563 132.723 15.0032 133.646 13.0971C134.015 13.466 134.199 14.0502 134.199 14.8495ZM94.6311 14.8495C94.6311 15.9563 93.7087 16.5097 91.8641 16.5097C91.3107 18.1699 90.665 19 89.9272 19C88.8204 19 87.9903 18.1699 87.4369 16.5097C85.5922 16.5097 84.6699 15.9563 84.6699 14.8495C84.6699 13.6812 85.0388 13.0971 85.7767 13.0971C86.0841 13.0971 86.7605 13.4968 87.8058 14.2961C88.9126 15.034 89.6197 15.4029 89.9272 15.4029C90.0502 15.4029 90.6036 15.034 91.5874 14.2961C92.6327 13.4968 93.2783 13.0971 93.5243 13.0971C94.2621 13.0971 94.6311 13.6812 94.6311 14.8495ZM94.3544 6.45631C94.3544 6.64078 93.7395 7.31715 92.5097 8.48544C91.3414 9.65372 90.7573 10.7298 90.7573 11.7136V11.9903H89.0971C89.1586 11.0065 88.5744 9.89968 87.3447 8.6699C86.1149 7.37864 85.5 6.64078 85.5 6.45631C85.5 6.02589 85.7767 5.81068 86.3301 5.81068C86.4531 5.81068 86.6375 5.84142 86.8835 5.90291H87.4369C87.3754 5.65696 87.068 5.22654 86.5146 4.61165C86.0227 3.93527 85.7767 3.41262 85.7767 3.04369C85.7767 2.49029 86.6068 2.21359 88.267 2.21359C88.267 1.29126 88.6359 0.64563 89.3738 0.276698C89.6812 0.0922327 89.8657 0 89.9272 0C90.4806 0 90.9417 0.737864 91.3107 2.21359C91.4337 2.21359 91.5874 2.18285 91.7719 2.12136C91.9563 1.99838 92.0793 1.93689 92.1408 1.93689C93.0631 1.93689 93.5243 2.30582 93.5243 3.04369C93.5243 3.59709 93.0631 4.55016 92.1408 5.90291C92.3252 5.90291 92.5405 5.87217 92.7864 5.81068C93.0939 5.6877 93.3398 5.62621 93.5243 5.62621C94.0777 5.62621 94.3544 5.90291 94.3544 6.45631ZM87.4369 11.1602V11.9903H82.1796V11.7136C82.733 11.1602 83.4709 10.6068 84.3932 10.0534C84.0243 9.68447 83.4709 9.5 82.733 9.5C80.335 9.5 78.5825 10.3301 77.4757 11.9903C78.767 12.2977 79.4126 12.9741 79.4126 14.0194C79.4126 15.3107 78.767 15.9563 77.4757 15.9563C76.1845 15.9563 75.5388 15.1877 75.5388 13.6505C75.5388 12.6052 75.9385 11.5599 76.7379 10.5146C77.5372 9.46926 78.4288 8.76214 79.4126 8.3932C78.6748 8.20874 78.0291 8.1165 77.4757 8.1165C76.3074 8.1165 75.0162 9.03883 73.6019 10.8835L73.0485 10.0534C73.2945 9.68447 73.479 9.13107 73.6019 8.3932C72.8026 8.3932 72.1262 8.85437 71.5728 9.7767C71.0809 10.699 70.6505 11.1602 70.2816 11.1602C69.5437 11.1602 68.8981 10.6068 68.3447 9.5C67.7913 10.0534 67.5146 10.6068 67.5146 11.1602C68.068 11.8981 68.3447 12.5437 68.3447 13.0971C68.3447 13.589 67.945 14.0194 67.1456 14.3883C66.3463 14.6958 65.6392 14.8495 65.0243 14.8495V15.4029C66.6845 15.7104 67.5146 16.1715 67.5146 16.7864C67.5146 17.8932 66.9612 18.4466 65.8544 18.4466C64.6861 18.4466 63.7638 17.7702 63.0874 16.4175C62.534 15.3107 62.2573 14.1117 62.2573 12.8204C62.2573 11.1602 62.534 10.1456 63.0874 9.7767L62.534 9.2233C61.2427 11.1294 59.2751 13.0356 56.6311 14.9417C53.6796 17.0939 51.2201 18.1699 49.2524 18.1699C48.2071 18.1699 47.254 17.8625 46.3932 17.2476C45.5324 16.6327 45.1019 15.8333 45.1019 14.8495C45.1019 14.2961 45.2864 13.6197 45.6553 12.8204C46.4547 14.0502 47.1618 14.8803 47.7767 15.3107C48.3916 15.7411 49.3447 15.9563 50.6359 15.9563C52.4806 15.9563 54.2945 15.2184 56.0777 13.7427C58.1068 12.021 59.6133 10.699 60.5971 9.7767L60.0437 9.2233C59.3058 9.40777 58.6602 9.5 58.1068 9.5C56.6311 9.5 55.8932 8.85437 55.8932 7.56311C55.8932 7.25566 56.0777 6.91747 56.4466 6.54854C56.877 6.11812 57.246 5.90291 57.5534 5.90291C58.2913 5.90291 58.6602 6.64078 58.6602 8.1165L59.4903 8.3932C60.1667 8.3932 61.1505 7.83981 62.4417 6.73301C63.733 5.62621 64.7783 5.07281 65.5777 5.07281C65.8851 5.07281 66.2848 5.22654 66.7767 5.53398C67.2686 5.77993 67.6068 5.90291 67.7913 5.90291C67.9757 5.90291 68.2832 5.65696 68.7136 5.16505C69.2055 4.67314 69.6359 4.42718 70.0049 4.42718C70.3738 4.42718 70.7735 4.67314 71.2039 5.16505C71.6958 5.65696 72.034 5.90291 72.2184 5.90291C72.5259 5.90291 73.0485 5.71845 73.7864 5.34951C74.5243 4.98058 75.1084 4.79612 75.5388 4.79612C77.1375 4.79612 79.4434 5.50324 82.4563 6.91748C85.7767 8.45469 87.4369 9.86893 87.4369 11.1602ZM43.1651 16.5097V17.3398C41.5049 17.3398 40.6748 16.6942 40.6748 15.4029C40.6748 14.2346 41.2282 13.6505 42.335 13.6505C42.4579 13.6505 42.6117 14.0809 42.7961 14.9417C43.0421 15.7411 43.1651 16.2638 43.1651 16.5097ZM39.0146 16.7864V17.3398H38.7379C38.4304 17.3398 38.0307 17.1861 37.5388 16.8786C37.0469 16.5712 36.801 16.2638 36.801 15.9563C36.801 15.2184 37.1699 14.8495 37.9078 14.8495C38.6456 14.8495 39.0146 15.4951 39.0146 16.7864ZM83.5631 5.07281V5.62621C82.0259 5.62621 79.7508 5.16505 76.7379 4.24272C73.7864 3.2589 71.5421 2.76699 70.0049 2.76699C66.6845 2.76699 63.1796 3.13592 59.4903 3.87379C54.1408 4.91909 51.466 6.42557 51.466 8.3932C51.466 10.7913 52.5728 11.9903 54.7864 11.9903L52.2961 13.0971L51.1893 12.8204L49.2524 14.5728L47.8689 13.0971L48.699 11.7136L47.5922 10.0534L47.8689 9.2233L47.0388 8.6699H46.2087C38.6456 14.0809 28.1311 16.7864 14.665 16.7864C4.88835 16.7864 0 14.2654 0 9.2233C0 7.74757 0.491909 6.45631 1.47573 5.34951C2.52104 4.18123 3.78155 3.59709 5.25728 3.59709C8.3932 3.59709 9.96117 5.19579 9.96117 8.3932C9.96117 10.7913 8.9466 11.9903 6.91748 11.9903C5.62621 11.9903 4.61165 11.6214 3.87379 10.8835L3.32039 11.1602C3.32039 12.6359 5.01133 13.7735 8.3932 14.5728C10.7298 15.1262 13.0971 15.4029 15.4951 15.4029C17.1553 15.4029 19.2767 15.2184 21.8592 14.8495L19.0922 11.1602L19.6456 10.8835C19.8916 11.0065 20.8754 11.6828 22.5971 12.9126C24.1343 14.0194 24.9951 14.5728 25.1796 14.5728C30.4061 14.5728 37.3236 12.4207 45.932 8.1165L45.3786 7.56311C44.2718 7.93204 42.7039 8.20874 40.6748 8.3932L38.7379 10.0534L37.0777 8.6699H36.2476L34.8641 10.3301L33.2039 8.6699L31.8204 8.3932L30.7136 10.0534C29.7913 9.86893 29.1456 8.9466 28.7767 7.28641C27.9159 7.71683 27.1165 7.93204 26.3786 7.93204C24.4725 7.93204 23.5194 6.76375 23.5194 4.42718L26.0097 1.1068C28.7152 3.19741 30.3754 4.39644 30.9903 4.70388C32.5275 5.50324 34.5566 5.90291 37.0777 5.90291C44.9482 5.90291 50.8511 4.94984 54.7864 3.04369L52.8495 1.3835V0.276698C53.3414 0.0922327 54.1408 0.338187 55.2476 1.01456C56.3544 1.62945 56.9385 1.93689 57 1.93689C58.3528 1.93689 60.3819 1.75243 63.0874 1.3835C65.7929 1.01456 67.822 0.830096 69.1748 0.830096C71.4498 0.830096 73.9709 1.22977 76.7379 2.02913C79.5663 2.82848 81.8414 3.84304 83.5631 5.07281Z" fill="#C8C8C8"/>
</svg>
